<?xml version="1.0" encoding="UTF-8"?>
<!DOCTYPE svg PUBLIC "-//W3C//DTD SVG 1.1//EN" "http://www.w3.org/Graphics/SVG/1.1/DTD/svg11.dtd">
<svg xmlns="http://www.w3.org/2000/svg" version="1.1" width="512px" height="512px" style="shape-rendering:geometricPrecision; text-rendering:geometricPrecision; image-rendering:optimizeQuality; fill-rule:evenodd; clip-rule:evenodd" xmlns:xlink="http://www.w3.org/1999/xlink">
<g><path style="opacity:0.991" fill="#000000" d="M 245.5,-0.5 C 252.167,-0.5 258.833,-0.5 265.5,-0.5C 284.703,5.20517 296.536,17.8718 301,37.5C 301.333,92.1667 301.667,146.833 302,201.5C 302.5,206 305,208.5 309.5,209C 364.167,209.333 418.833,209.667 473.5,210C 493.128,214.464 505.795,226.297 511.5,245.5C 511.5,252.167 511.5,258.833 511.5,265.5C 505.795,284.703 493.128,296.536 473.5,301C 418.833,301.333 364.167,301.667 309.5,302C 305,302.5 302.5,305 302,309.5C 301.667,364.167 301.333,418.833 301,473.5C 296.536,493.128 284.703,505.795 265.5,511.5C 258.833,511.5 252.167,511.5 245.5,511.5C 226.297,505.795 214.464,493.128 210,473.5C 209.667,418.833 209.333,364.167 209,309.5C 208.5,305 206,302.5 201.5,302C 146.833,301.667 92.1667,301.333 37.5,301C 17.8718,296.536 5.20517,284.703 -0.5,265.5C -0.5,258.833 -0.5,252.167 -0.5,245.5C 5.20517,226.297 17.8718,214.464 37.5,210C 92.1667,209.667 146.833,209.333 201.5,209C 206,208.5 208.5,206 209,201.5C 209.333,146.833 209.667,92.1667 210,37.5C 214.464,17.8718 226.297,5.20517 245.5,-0.5 Z"/></g>
</svg>
