<?xml version="1.0" standalone="no"?>
<!DOCTYPE svg PUBLIC "-//W3C//DTD SVG 20010904//EN"
 "http://www.w3.org/TR/2001/REC-SVG-20010904/DTD/svg10.dtd">
<svg version="1.0" xmlns="http://www.w3.org/2000/svg"
 width="512.000000pt" height="512.000000pt" viewBox="0 0 512.000000 512.000000"
 preserveAspectRatio="xMidYMid meet">

<g transform="translate(0.000000,512.000000) scale(0.100000,-0.100000)"
fill="#000000" stroke="none">
<path d="M3820 4408 c-33 -17 -51 -35 -67 -68 l-23 -44 0 -1723 0 -1723 -135
0 -135 0 -2 1213 -3 1212 -23 33 c-13 18 -42 42 -63 53 -38 19 -55 20 -304 17
-248 -3 -265 -4 -291 -24 -15 -11 -37 -33 -48 -48 -21 -27 -21 -35 -26 -1239
l-5 -1212 -135 0 -135 0 -5 522 c-5 511 -5 522 -26 550 -12 15 -36 37 -55 48
-32 19 -52 20 -299 20 -256 0 -266 -1 -300 -22 -20 -12 -46 -40 -58 -61 -22
-40 -22 -42 -22 -551 l0 -511 -135 0 -135 0 0 800 c0 876 3 837 -59 895 l-32
30 -283 3 c-280 3 -282 3 -316 -20 -19 -13 -43 -39 -54 -58 -21 -34 -21 -48
-24 -842 l-3 -808 -125 0 c-119 0 -126 -1 -149 -25 -40 -40 -30 -96 22 -123
30 -17 4351 -17 4386 -1 49 22 61 86 22 124 -23 24 -30 25 -150 25 l-125 0 0
1703 c0 1135 -4 1717 -11 1747 -6 25 -22 58 -37 74 -50 53 -70 56 -340 56
-237 0 -250 -1 -292 -22z"/>
</g>
</svg>
