<?xml version="1.0" encoding="UTF-8"?>
<!DOCTYPE svg PUBLIC "-//W3C//DTD SVG 1.1//EN" "http://www.w3.org/Graphics/SVG/1.1/DTD/svg11.dtd">
<svg xmlns="http://www.w3.org/2000/svg" version="1.1" width="512px" height="512px" style="shape-rendering:geometricPrecision; text-rendering:geometricPrecision; image-rendering:optimizeQuality; fill-rule:evenodd; clip-rule:evenodd" xmlns:xlink="http://www.w3.org/1999/xlink">
<g><path style="opacity:0.99" fill="#000000" d="M 511.5,397.5 C 511.5,408.167 511.5,418.833 511.5,429.5C 507.142,435.444 501.476,436.944 494.5,434C 478.604,410.772 458.271,392.439 433.5,379C 394.489,358.911 353.155,346.245 309.5,341C 286.927,338.062 264.26,336.562 241.5,336.5C 241.667,367.168 241.5,397.835 241,428.5C 237.998,434.582 233.165,436.749 226.5,435C 150.339,377.322 74.6723,319.155 -0.5,260.5C -0.5,257.167 -0.5,253.833 -0.5,250.5C 74.6723,191.845 150.339,133.678 226.5,76C 233.203,74.2721 238.037,76.4387 241,82.5C 241.5,114.832 241.667,147.165 241.5,179.5C 297.993,175.966 351.659,186.466 402.5,211C 456.59,241.603 490.424,287.436 504,348.5C 507.414,364.844 509.914,381.177 511.5,397.5 Z"/></g>
</svg>
