<?xml version="1.0" standalone="no"?>
<!DOCTYPE svg PUBLIC "-//W3C//DTD SVG 20010904//EN"
 "http://www.w3.org/TR/2001/REC-SVG-20010904/DTD/svg10.dtd">
<svg version="1.0" xmlns="http://www.w3.org/2000/svg"
 width="512.000000pt" height="512.000000pt" viewBox="0 0 512.000000 512.000000"
 preserveAspectRatio="xMidYMid meet">

<g transform="translate(0.000000,512.000000) scale(0.100000,-0.100000)"
fill="#000000" stroke="none">
<path d="M2152 4645 c-35 -8 -95 -28 -133 -46 l-70 -32 39 -41 c87 -92 108
-138 82 -187 -15 -28 -68 -52 -97 -44 -14 3 -65 46 -112 94 -97 98 -172 142
-288 166 -86 18 -130 18 -218 0 -99 -21 -199 -73 -268 -141 l-59 -57 57 -22
c103 -38 134 -107 76 -166 -36 -36 -54 -36 -145 -3 -95 35 -234 43 -326 19
-179 -46 -324 -181 -386 -358 -13 -36 -13 -39 4 -32 37 14 128 35 154 35 15 0
39 -11 55 -24 22 -19 28 -32 28 -65 0 -56 -26 -78 -115 -101 -163 -42 -291
-140 -362 -276 -136 -259 -59 -556 187 -719 92 -62 102 -71 105 -100 4 -40 -1
-56 -25 -80 -34 -35 -81 -33 -146 5 -28 17 -53 29 -55 27 -2 -2 14 -38 35 -80
114 -227 341 -383 586 -404 l70 -5 1 103 c4 341 202 649 520 808 160 80 182
84 601 90 l373 6 25 26 c19 18 28 42 35 85 4 32 13 70 18 84 20 51 70 106 123
135 54 30 55 30 234 33 108 2 191 -1 207 -7 60 -23 72 -111 21 -151 -23 -18
-41 -20 -185 -20 -200 0 -238 -16 -238 -98 0 -66 -30 -134 -84 -188 -82 -81
-98 -84 -482 -84 -348 0 -405 -6 -526 -55 -156 -63 -305 -202 -382 -355 -62
-123 -80 -213 -73 -359 4 -94 10 -131 34 -198 156 -434 650 -621 1049 -398 60
34 224 176 224 195 0 4 -17 19 -38 33 -76 50 -112 91 -112 129 0 44 30 84 70
93 34 7 45 2 142 -68 121 -87 263 -148 421 -183 102 -23 317 -23 427 0 281 60
520 216 682 446 71 102 72 106 48 140 -37 52 -90 177 -90 213 0 68 62 109 126
82 25 -10 36 -26 58 -81 38 -94 78 -154 145 -216 219 -203 548 -197 760 15 69
69 131 182 150 275 42 202 -44 425 -211 548 -33 24 -65 44 -72 44 -6 0 -20
-33 -30 -72 -24 -94 -69 -144 -119 -134 -42 9 -80 47 -80 83 0 15 12 69 27
118 57 185 44 421 -33 606 -87 208 -274 399 -477 485 -35 15 -66 25 -68 23 -3
-2 13 -40 35 -84 36 -73 39 -83 28 -113 -17 -50 -83 -77 -129 -52 -10 5 -37
44 -60 86 -61 110 -149 215 -241 288 -291 230 -677 265 -1008 90 -99 -52 -140
-57 -176 -18 -43 46 -30 109 28 144 l31 19 -39 17 c-102 42 -247 54 -363 29z"/>
<path d="M4064 2007 c-63 -93 -208 -239 -304 -306 -160 -112 -374 -199 -550
-223 -49 -7 -90 -16 -90 -20 0 -4 35 -43 78 -86 181 -186 404 -274 692 -274
144 0 243 18 372 66 240 90 418 269 473 476 15 55 18 199 6 254 l-6 30 -155 1
c-119 1 -168 6 -210 19 -67 22 -184 79 -226 111 l-31 24 -49 -72z"/>
<path d="M2431 1509 c-51 -58 -53 -62 -47 -103 13 -83 97 -179 179 -205 18 -5
62 -12 98 -16 36 -3 88 -17 115 -29 56 -26 65 -36 416 -435 144 -165 232 -257
248 -261 38 -10 88 7 107 37 16 24 18 54 18 241 l0 214 -80 27 c-135 45 -246
108 -353 199 -62 53 -159 170 -199 242 -23 41 -33 50 -56 50 -49 0 -179 30
-284 66 -55 19 -103 34 -105 34 -2 0 -28 -27 -57 -61z"/>
</g>
</svg>
