<?xml version="1.0" encoding="UTF-8"?>
<!DOCTYPE svg PUBLIC "-//W3C//DTD SVG 1.1//EN" "http://www.w3.org/Graphics/SVG/1.1/DTD/svg11.dtd">
<svg xmlns="http://www.w3.org/2000/svg" version="1.1" width="512px" height="512px" style="shape-rendering:geometricPrecision; text-rendering:geometricPrecision; image-rendering:optimizeQuality; fill-rule:evenodd; clip-rule:evenodd" xmlns:xlink="http://www.w3.org/1999/xlink">
<g><path style="opacity:0.965" fill="#000000" d="M 378.5,3.5 C 384.176,3.33391 389.843,3.50058 395.5,4C 404.672,6.83686 409.839,13.0035 411,22.5C 411.667,49.1667 411.667,75.8333 411,102.5C 409.624,112.876 403.791,119.043 393.5,121C 378.759,124.381 368.592,119.214 363,105.5C 362.333,76.8333 362.333,48.1667 363,19.5C 365.418,11.3987 370.585,6.06539 378.5,3.5 Z"/></g>
<g><path style="opacity:0.967" fill="#000000" d="M 118.5,4.5 C 125.175,4.33375 131.842,4.50042 138.5,5C 145.428,7.59357 149.928,12.4269 152,19.5C 152.667,48.5 152.667,77.5 152,106.5C 149.833,114 145,118.833 137.5,121C 131.5,121.667 125.5,121.667 119.5,121C 109.862,118.031 104.696,111.531 104,101.5C 103.333,75.8333 103.333,50.1667 104,24.5C 104.867,14.8204 109.7,8.15369 118.5,4.5 Z"/></g>
<g><path style="opacity:0.986" fill="#000000" d="M 511.5,70.5 C 511.5,207.833 511.5,345.167 511.5,482.5C 506.978,495.96 497.645,504.127 483.5,507C 331.5,507.667 179.5,507.667 27.5,507C 13.3553,504.127 4.02201,495.96 -0.5,482.5C -0.5,345.167 -0.5,207.833 -0.5,70.5C 2.72952,59.43 9.72952,51.5966 20.5,47C 43.1139,45.5423 65.7806,45.0423 88.5,45.5C 88.3334,65.5028 88.5,85.5028 89,105.5C 93.8735,126.192 107.04,136.858 128.5,137.5C 148.628,137.367 161.462,127.7 167,108.5C 167.5,87.5026 167.667,66.5026 167.5,45.5C 227.5,45.5 287.5,45.5 347.5,45.5C 347.333,66.5026 347.5,87.5026 348,108.5C 354.075,127.73 367.242,137.064 387.5,136.5C 400.758,137.362 411.925,133.028 421,123.5C 423.455,119.469 425.121,115.136 426,110.5C 426.5,88.8359 426.667,67.1692 426.5,45.5C 447.887,45.0451 469.22,45.5451 490.5,47C 501.28,51.6048 508.28,59.4381 511.5,70.5 Z M 32.5,175.5 C 181.167,175.5 329.833,175.5 478.5,175.5C 478.5,274.833 478.5,374.167 478.5,473.5C 329.833,473.5 181.167,473.5 32.5,473.5C 32.5,374.167 32.5,274.833 32.5,175.5 Z"/></g>
<g><path style="opacity:0.978" fill="#000000" d="M 270.5,215.5 C 291.503,215.333 312.503,215.5 333.5,216C 334,216.5 334.5,217 335,217.5C 335.667,236.5 335.667,255.5 335,274.5C 313.24,275.66 291.406,275.827 269.5,275C 269,274.5 268.5,274 268,273.5C 267.333,255.167 267.333,236.833 268,218.5C 268.698,217.309 269.531,216.309 270.5,215.5 Z"/></g>
<g><path style="opacity:0.978" fill="#000000" d="M 366.5,215.5 C 387.503,215.333 408.503,215.5 429.5,216C 430,216.5 430.5,217 431,217.5C 431.667,236.5 431.667,255.5 431,274.5C 409.24,275.66 387.406,275.827 365.5,275C 365,274.5 364.5,274 364,273.5C 363.333,255.167 363.333,236.833 364,218.5C 364.698,217.309 365.531,216.309 366.5,215.5 Z"/></g>
<g><path style="opacity:0.978" fill="#000000" d="M 77.5,299.5 C 99.1692,299.333 120.836,299.5 142.5,300C 143.659,319.093 143.826,338.26 143,357.5C 142.5,358 142,358.5 141.5,359C 120.123,359.822 98.7902,359.655 77.5,358.5C 76.8076,357.975 76.3076,357.308 76,356.5C 75.3333,338.167 75.3333,319.833 76,301.5C 76.7172,300.956 77.2172,300.289 77.5,299.5 Z"/></g>
<g><path style="opacity:0.978" fill="#000000" d="M 173.5,299.5 C 195.169,299.333 216.836,299.5 238.5,300C 239.659,319.093 239.826,338.26 239,357.5C 238.5,358 238,358.5 237.5,359C 216.123,359.822 194.79,359.655 173.5,358.5C 172.808,357.975 172.308,357.308 172,356.5C 171.333,338.167 171.333,319.833 172,301.5C 172.717,300.956 173.217,300.289 173.5,299.5 Z"/></g>
<g><path style="opacity:0.978" fill="#000000" d="M 269.5,299.5 C 291.169,299.333 312.836,299.5 334.5,300C 335.659,319.093 335.826,338.26 335,357.5C 334.5,358 334,358.5 333.5,359C 312.123,359.822 290.79,359.655 269.5,358.5C 268.808,357.975 268.308,357.308 268,356.5C 267.333,338.167 267.333,319.833 268,301.5C 268.717,300.956 269.217,300.289 269.5,299.5 Z"/></g>
<g><path style="opacity:0.978" fill="#000000" d="M 365.5,299.5 C 387.169,299.333 408.836,299.5 430.5,300C 431.659,319.093 431.826,338.26 431,357.5C 430.5,358 430,358.5 429.5,359C 408.123,359.822 386.79,359.655 365.5,358.5C 364.808,357.975 364.308,357.308 364,356.5C 363.333,338.167 363.333,319.833 364,301.5C 364.717,300.956 365.217,300.289 365.5,299.5 Z"/></g>
<g><path style="opacity:0.979" fill="#000000" d="M 77.5,382.5 C 98.8359,382.333 120.169,382.5 141.5,383C 142,383.5 142.5,384 143,384.5C 143.833,403.509 143.666,422.509 142.5,441.5C 120.876,442.655 99.2098,442.822 77.5,442C 77,441.5 76.5,441 76,440.5C 75.3333,422.167 75.3333,403.833 76,385.5C 76.5133,384.473 77.0133,383.473 77.5,382.5 Z"/></g>
<g><path style="opacity:0.979" fill="#000000" d="M 173.5,382.5 C 194.836,382.333 216.169,382.5 237.5,383C 238,383.5 238.5,384 239,384.5C 239.833,403.509 239.666,422.509 238.5,441.5C 216.876,442.655 195.21,442.822 173.5,442C 173,441.5 172.5,441 172,440.5C 171.333,422.167 171.333,403.833 172,385.5C 172.513,384.473 173.013,383.473 173.5,382.5 Z"/></g>
<g><path style="opacity:0.979" fill="#000000" d="M 270.5,382.5 C 291.503,382.333 312.503,382.5 333.5,383C 334,383.5 334.5,384 335,384.5C 335.833,403.509 335.666,422.509 334.5,441.5C 312.876,442.655 291.21,442.822 269.5,442C 268.874,441.25 268.374,440.416 268,439.5C 267.333,421.5 267.333,403.5 268,385.5C 268.698,384.309 269.531,383.309 270.5,382.5 Z"/></g>
<g><path style="opacity:0.979" fill="#000000" d="M 366.5,382.5 C 387.503,382.333 408.503,382.5 429.5,383C 430,383.5 430.5,384 431,384.5C 431.833,403.509 431.666,422.509 430.5,441.5C 408.876,442.655 387.21,442.822 365.5,442C 364.874,441.25 364.374,440.416 364,439.5C 363.333,421.5 363.333,403.5 364,385.5C 364.698,384.309 365.531,383.309 366.5,382.5 Z"/></g>
</svg>
