<?xml version="1.0" encoding="UTF-8"?>
<!DOCTYPE svg PUBLIC "-//W3C//DTD SVG 1.1//EN" "http://www.w3.org/Graphics/SVG/1.1/DTD/svg11.dtd">
<svg xmlns="http://www.w3.org/2000/svg" version="1.1" width="512px" height="512px" style="shape-rendering:geometricPrecision; text-rendering:geometricPrecision; image-rendering:optimizeQuality; fill-rule:evenodd; clip-rule:evenodd" xmlns:xlink="http://www.w3.org/1999/xlink">
<g><path style="opacity:0.974" fill="#000000" d="M 232.5,-0.5 C 247.833,-0.5 263.167,-0.5 278.5,-0.5C 378.273,12.4507 449.439,64.4507 492,155.5C 502.135,180.377 508.635,206.043 511.5,232.5C 511.5,247.833 511.5,263.167 511.5,278.5C 500.242,368.889 455.242,436.722 376.5,482C 345.583,498.057 312.917,507.89 278.5,511.5C 263.167,511.5 247.833,511.5 232.5,511.5C 142.854,500.611 75.3537,456.278 30,378.5C 13.3058,347.032 3.13909,313.698 -0.5,278.5C -0.5,263.167 -0.5,247.833 -0.5,232.5C 10.3889,142.854 54.7222,75.3537 132.5,30C 163.968,13.3058 197.302,3.13909 232.5,-0.5 Z M 248.5,42.5 C 339.425,43.8527 405.925,84.5193 448,164.5C 478.205,234.558 474.205,302.558 436,368.5C 393.102,432.378 332.935,465.712 255.5,468.5C 167.728,464.558 103.561,423.891 63,346.5C 32.7947,276.453 36.7947,208.453 75,142.5C 116.226,80.6289 174.059,47.2956 248.5,42.5 Z"/></g>
<g><path style="opacity:0.961" fill="#000000" d="M 159.5,143.5 C 167.858,142.343 175.191,144.51 181.5,150C 206.014,174.681 230.68,199.181 255.5,223.5C 281.348,197.819 307.348,172.319 333.5,147C 349.036,139.732 360.203,143.899 367,159.5C 368.209,165.886 367.209,171.886 364,177.5C 338.681,203.652 313.181,229.652 287.5,255.5C 313.181,281.348 338.681,307.348 364,333.5C 371.268,349.036 367.101,360.203 351.5,367C 345.114,368.209 339.114,367.209 333.5,364C 307.348,338.681 281.348,313.181 255.5,287.5C 229.652,313.181 203.652,338.681 177.5,364C 161.964,371.268 150.797,367.101 144,351.5C 142.791,345.114 143.791,339.114 147,333.5C 172.319,307.348 197.819,281.348 223.5,255.5C 197.819,229.652 172.319,203.652 147,177.5C 139.84,161.801 144.007,150.467 159.5,143.5 Z"/></g>
</svg>
