<?xml version="1.0" encoding="UTF-8"?>
<!DOCTYPE svg PUBLIC "-//W3C//DTD SVG 1.1//EN" "http://www.w3.org/Graphics/SVG/1.1/DTD/svg11.dtd">
<svg xmlns="http://www.w3.org/2000/svg" version="1.1" width="512px" height="512px" style="shape-rendering:geometricPrecision; text-rendering:geometricPrecision; image-rendering:optimizeQuality; fill-rule:evenodd; clip-rule:evenodd" xmlns:xlink="http://www.w3.org/1999/xlink">
<g><path style="opacity:0.973" fill="#000000" d="M 208.5,41.5 C 240.168,41.3334 271.835,41.5 303.5,42C 326.644,41.5878 349.311,44.5878 371.5,51C 382.897,57.8479 386.397,67.6812 382,80.5C 377.715,88.3152 371.048,92.3152 362,92.5C 346.414,88.6557 330.581,86.4891 314.5,86C 269.818,85.0905 225.152,85.4239 180.5,87C 138.041,92.4532 108.541,114.953 92,154.5C 89.4728,162.996 87.8061,171.663 87,180.5C 85.4312,224.819 85.0978,269.152 86,313.5C 84.9168,355.842 102.084,388.342 137.5,411C 155.879,420.877 175.545,425.544 196.5,425C 235.833,425.667 275.167,425.667 314.5,425C 362.121,425.285 396.287,404.118 417,361.5C 422.428,345.993 425.095,329.993 425,313.5C 425.333,278.167 425.667,242.833 426,207.5C 432.982,191.281 444.482,187.114 460.5,195C 465.293,199.085 468.126,204.251 469,210.5C 469.821,249.844 469.487,289.178 468,328.5C 462.862,389.31 432.696,432.477 377.5,458C 353.166,466.001 328.166,469.667 302.5,469C 262.822,469.823 223.156,469.489 183.5,468C 130.305,464.669 89.8048,440.502 62,395.5C 51.9877,378.129 45.9877,359.463 44,339.5C 40.6667,283.5 40.6667,227.5 44,171.5C 52.7164,114.461 83.5497,74.6275 136.5,52C 147.843,47.9313 159.51,45.2647 171.5,44C 183.989,43.1514 196.322,42.3181 208.5,41.5 Z"/></g>
<g><path style="opacity:0.97" fill="#000000" d="M 440.5,95.5 C 457.213,93.0059 466.879,100.006 469.5,116.5C 469.059,124.887 465.393,131.387 458.5,136C 378.044,182.791 317.211,247.958 276,331.5C 270.072,340.147 261.905,343.314 251.5,341C 249.051,340.275 246.717,339.275 244.5,338C 213.305,307.139 182.472,275.972 152,244.5C 146.488,226.186 153.155,215.52 172,212.5C 176.889,212.796 181.389,214.296 185.5,217C 207.167,238.667 228.833,260.333 250.5,282C 251.167,282.667 251.833,282.667 252.5,282C 298.124,202.542 360.79,140.376 440.5,95.5 Z"/></g>
</svg>
