<?xml version="1.0" encoding="UTF-8"?>
<!DOCTYPE svg PUBLIC "-//W3C//DTD SVG 1.1//EN" "http://www.w3.org/Graphics/SVG/1.1/DTD/svg11.dtd">
<svg xmlns="http://www.w3.org/2000/svg" version="1.1" width="512px" height="512px" style="shape-rendering:geometricPrecision; text-rendering:geometricPrecision; image-rendering:optimizeQuality; fill-rule:evenodd; clip-rule:evenodd" xmlns:xlink="http://www.w3.org/1999/xlink">
<g><path style="opacity:0.993" fill="#000000" d="M 73.5,33.5 C 194.834,33.3333 316.167,33.5 437.5,34C 469.559,39.7253 488.725,58.5586 495,90.5C 495.667,167.833 495.667,245.167 495,322.5C 488.725,354.441 469.559,373.275 437.5,379C 364.833,379.333 292.167,379.667 219.5,380C 173.333,412.167 127.167,444.333 81,476.5C 80.5,444.168 80.3334,411.835 80.5,379.5C 48.4581,377.232 27.2915,360.899 17,330.5C 16.0881,326.205 15.4215,321.872 15,317.5C 14.3333,243.167 14.3333,168.833 15,94.5C 18.0562,68.781 31.2228,50.281 54.5,39C 60.8169,36.6753 67.1502,34.842 73.5,33.5 Z M 144.5,133.5 C 218.5,133.5 292.5,133.5 366.5,133.5C 366.5,142.833 366.5,152.167 366.5,161.5C 292.5,161.5 218.5,161.5 144.5,161.5C 144.5,152.167 144.5,142.833 144.5,133.5 Z M 144.5,193.5 C 218.5,193.5 292.5,193.5 366.5,193.5C 366.5,202.833 366.5,212.167 366.5,221.5C 292.5,221.5 218.5,221.5 144.5,221.5C 144.5,212.167 144.5,202.833 144.5,193.5 Z M 144.5,253.5 C 218.5,253.5 292.5,253.5 366.5,253.5C 366.5,262.833 366.5,272.167 366.5,281.5C 292.5,281.5 218.5,281.5 144.5,281.5C 144.5,272.167 144.5,262.833 144.5,253.5 Z"/></g>
</svg>
