<?xml version="1.0" standalone="no"?>
<!DOCTYPE svg PUBLIC "-//W3C//DTD SVG 20010904//EN"
 "http://www.w3.org/TR/2001/REC-SVG-20010904/DTD/svg10.dtd">
<svg version="1.0" xmlns="http://www.w3.org/2000/svg"
 width="512.000000pt" height="512.000000pt" viewBox="0 0 512.000000 512.000000"
 preserveAspectRatio="xMidYMid meet">

<g transform="translate(0.000000,512.000000) scale(0.100000,-0.100000)"
fill="#000000" stroke="none">
<path d="M2492 5099 c-23 -12 -58 -39 -76 -61 -43 -50 -520 -764 -705 -1056
-676 -1067 -980 -1735 -981 -2159 0 -260 73 -569 189 -801 377 -750 1197
-1150 2014 -982 545 113 1013 475 1268 982 151 300 222 705 173 989 -73 425
-377 1048 -957 1959 -216 339 -684 1039 -721 1078 -38 41 -96 72 -133 72 -15
0 -47 -10 -71 -21z m1469 -3130 c89 -27 148 -110 149 -209 0 -239 -117 -581
-284 -824 -144 -211 -448 -464 -577 -482 -138 -19 -260 104 -247 247 8 75 43
119 164 200 292 196 463 476 504 828 6 52 17 109 25 126 48 99 157 146 266
114z"/>
</g>
</svg>
