<?xml version="1.0" standalone="no"?>
<!DOCTYPE svg PUBLIC "-//W3C//DTD SVG 20010904//EN"
 "http://www.w3.org/TR/2001/REC-SVG-20010904/DTD/svg10.dtd">
<svg version="1.0" xmlns="http://www.w3.org/2000/svg"
 width="512.000000pt" height="512.000000pt" viewBox="0 0 512.000000 512.000000"
 preserveAspectRatio="xMidYMid meet">

<g transform="translate(0.000000,512.000000) scale(0.100000,-0.100000)"
fill="#000000" stroke="none">
<path d="M2375 4794 c-376 -39 -726 -158 -1015 -345 l-75 -48 -6 70 c-9 110
-61 164 -159 164 -63 0 -95 -16 -134 -69 -20 -26 -21 -40 -21 -326 0 -286 1
-300 21 -326 11 -15 33 -37 48 -48 26 -20 40 -21 326 -21 286 0 300 1 326 21
53 39 69 71 69 134 0 44 -5 66 -21 86 -39 53 -69 68 -152 74 l-77 5 80 47
c748 439 1689 329 2308 -271 176 -170 288 -324 393 -536 288 -587 260 -1281
-74 -1835 -119 -197 -307 -408 -481 -539 -576 -436 -1346 -518 -1989 -211
-212 101 -355 202 -528 375 -195 193 -318 371 -417 605 -93 220 -140 427 -155
688 -9 142 -16 162 -76 206 -39 29 -133 29 -172 0 -74 -55 -84 -106 -65 -326
46 -520 259 -987 620 -1361 350 -362 769 -579 1286 -663 151 -25 494 -25 652
-1 472 74 887 279 1223 603 358 346 577 764 662 1264 26 151 31 512 10 645
-89 545 -300 960 -668 1315 -333 321 -735 524 -1194 600 -121 21 -443 34 -545
24z"/>
<path d="M2375 3989 c-543 -68 -1012 -459 -1185 -987 -52 -161 -65 -248 -64
-447 0 -195 15 -290 69 -452 142 -423 485 -766 908 -908 165 -55 257 -69 457
-69 200 0 292 14 457 69 429 144 771 490 913 923 50 154 64 249 65 432 0 256
-41 437 -151 656 -270 542 -864 858 -1469 783z m273 -496 c14 -10 35 -32 46
-47 20 -26 21 -42 24 -414 l3 -387 211 -140 c116 -77 221 -154 234 -171 58
-75 31 -188 -56 -232 -83 -43 -98 -37 -398 164 -146 99 -275 192 -287 207 -19
27 -20 44 -23 460 -2 238 0 446 3 464 7 40 49 91 90 109 40 19 120 12 153 -13z"/>
</g>
</svg>
