<?xml version="1.0" standalone="no"?>
<!DOCTYPE svg PUBLIC "-//W3C//DTD SVG 20010904//EN"
 "http://www.w3.org/TR/2001/REC-SVG-20010904/DTD/svg10.dtd">
<svg version="1.0" xmlns="http://www.w3.org/2000/svg"
 width="512.000000pt" height="512.000000pt" viewBox="0 0 512.000000 512.000000"
 preserveAspectRatio="xMidYMid meet">

<g transform="translate(0.000000,512.000000) scale(0.100000,-0.100000)"
fill="#000000" stroke="none">
<path d="M610 4970 l0 -150 149 0 c169 0 161 5 161 -90 0 -72 29 -274 56 -400
50 -228 143 -464 251 -640 119 -193 215 -300 618 -690 215 -208 259 -283 259
-440 0 -157 -44 -232 -259 -440 -403 -390 -499 -497 -618 -690 -108 -176 -201
-412 -251 -640 -27 -126 -56 -328 -56 -400 0 -95 8 -90 -161 -90 l-149 0 0
-150 0 -150 1950 0 1950 0 0 150 0 150 -149 0 c-169 0 -161 -5 -161 90 0 72
-29 274 -56 400 -50 228 -143 464 -251 640 -119 193 -215 300 -618 690 -215
208 -259 283 -259 440 0 157 44 232 259 440 403 390 499 497 618 690 108 176
201 412 251 640 27 126 56 328 56 400 0 95 -8 90 161 90 l149 0 0 150 0 150
-1950 0 -1950 0 0 -150z m3293 -197 c-21 -234 -61 -447 -111 -593 l-19 -55
-1213 0 -1213 0 -19 55 c-50 146 -90 359 -111 593 l-5 47 1348 0 1348 0 -5
-47z m-1493 -2817 l0 -524 -37 -7 c-21 -3 -256 -96 -522 -206 -266 -110 -486
-198 -489 -195 -10 10 121 253 183 342 90 125 199 243 411 442 99 94 204 197
233 229 109 121 179 253 203 377 7 36 14 66 15 66 2 0 3 -236 3 -524z m356
331 c59 -139 137 -233 398 -479 212 -199 321 -317 411 -442 62 -89 193 -332
183 -342 -3 -3 -223 85 -489 195 -266 110 -501 203 -521 206 l-38 7 1 527 c1
491 2 521 16 457 8 -39 26 -97 39 -129z"/>
</g>
</svg>
