<?xml version="1.0" standalone="no"?>
<!DOCTYPE svg PUBLIC "-//W3C//DTD SVG 20010904//EN"
 "http://www.w3.org/TR/2001/REC-SVG-20010904/DTD/svg10.dtd">
<svg version="1.0" xmlns="http://www.w3.org/2000/svg"
 width="512.000000pt" height="512.000000pt" viewBox="0 0 512.000000 512.000000"
 preserveAspectRatio="xMidYMid meet">

<g transform="translate(0.000000,512.000000) scale(0.100000,-0.100000)"
fill="#000000" stroke="none">
<path d="M2623 4770 c-86 -44 -113 -148 -61 -228 34 -50 74 -68 173 -77 117
-9 310 -50 428 -89 863 -290 1404 -1147 1293 -2048 -53 -420 -247 -820 -540
-1108 l-66 -64 0 138 c0 157 -9 189 -68 234 -29 22 -46 27 -92 27 -47 0 -63
-5 -94 -29 -66 -50 -67 -60 -64 -406 3 -295 4 -310 24 -337 11 -15 36 -38 54
-51 32 -22 38 -22 343 -22 296 0 311 1 347 21 54 31 84 88 78 151 -8 80 -60
131 -148 146 l-42 7 77 90 c436 508 615 1210 479 1885 -50 252 -174 554 -311
765 -379 579 -1014 959 -1688 1010 -70 5 -86 3 -122 -15z"/>
<path d="M985 4599 c-111 -27 -160 -164 -88 -249 40 -48 73 -60 164 -60 l81 0
-116 -111 c-202 -193 -345 -387 -466 -634 -475 -964 -197 -2121 664 -2769 333
-250 749 -405 1176 -438 188 -14 219 -9 270 42 66 66 67 156 1 221 -42 42 -44
43 -251 58 -176 13 -306 39 -465 92 -338 113 -645 325 -875 604 -328 400 -482
937 -415 1447 57 433 242 809 549 1113 61 61 126 121 144 133 l32 23 0 -83 c0
-104 11 -143 52 -185 57 -59 146 -64 212 -12 55 43 56 52 56 392 0 309 0 315
-23 347 -12 19 -38 43 -57 54 -33 20 -52 21 -320 23 -157 1 -303 -3 -325 -8z"/>
<path d="M2475 3780 c-188 -24 -394 -103 -552 -212 -271 -185 -466 -499 -514
-828 -19 -131 -7 -363 25 -482 109 -410 413 -733 811 -863 246 -80 544 -76
787 11 568 203 908 797 794 1387 -96 495 -494 888 -991 977 -86 15 -278 20
-360 10z m165 -493 c30 -16 51 -37 67 -67 22 -42 23 -51 23 -294 l0 -251 207
-207 207 -207 4 -63 c3 -54 0 -68 -20 -97 -44 -65 -132 -89 -202 -56 -18 9
-139 122 -268 253 -195 195 -237 243 -243 272 -3 19 -5 171 -3 337 3 342 2
336 88 381 56 28 86 28 140 -1z"/>
</g>
</svg>
