<?xml version="1.0" encoding="UTF-8"?>
<!DOCTYPE svg PUBLIC "-//W3C//DTD SVG 1.1//EN" "http://www.w3.org/Graphics/SVG/1.1/DTD/svg11.dtd">
<svg xmlns="http://www.w3.org/2000/svg" version="1.1" width="512px" height="512px" style="shape-rendering:geometricPrecision; text-rendering:geometricPrecision; image-rendering:optimizeQuality; fill-rule:evenodd; clip-rule:evenodd" xmlns:xlink="http://www.w3.org/1999/xlink">
<g><path style="opacity:0.975" fill="#000000" d="M 191.5,-0.5 C 234.167,-0.5 276.833,-0.5 319.5,-0.5C 319.5,13.8333 319.5,28.1667 319.5,42.5C 305.5,42.5 291.5,42.5 277.5,42.5C 277.5,56.8333 277.5,71.1667 277.5,85.5C 314.132,89.5765 347.632,101.91 378,122.5C 389.292,112.209 400.292,101.542 411,90.5C 421,100.5 431,110.5 441,120.5C 441.667,121.167 441.667,121.833 441,122.5C 431.167,132.333 421.333,142.167 411.5,152C 463.334,210.504 480.168,278.004 462,354.5C 440.092,427.408 393.258,476.575 321.5,502C 307.243,506.149 292.909,509.315 278.5,511.5C 263.167,511.5 247.833,511.5 232.5,511.5C 149.692,499.186 91.1921,454.853 57,378.5C 28.9921,300.897 39.6588,229.23 89,163.5C 92.6167,159.761 96.1167,155.928 99.5,152C 89.6667,142.167 79.8333,132.333 70,122.5C 69.3333,121.833 69.3333,121.167 70,120.5C 80,110.5 90,100.5 100,90.5C 110.708,101.542 121.708,112.209 133,122.5C 163.368,101.91 196.868,89.5765 233.5,85.5C 233.5,71.1667 233.5,56.8333 233.5,42.5C 219.5,42.5 205.5,42.5 191.5,42.5C 191.5,28.1667 191.5,13.8333 191.5,-0.5 Z M 252.5,127.5 C 331.427,130.851 385.927,168.851 416,241.5C 437.632,314.245 420.799,376.412 365.5,428C 312.025,470.069 253.359,479.069 189.5,455C 123.358,423.762 88.691,371.429 85.5,298C 88.5789,226.628 121.912,174.961 185.5,143C 207.039,133.796 229.372,128.63 252.5,127.5 Z"/></g>
<g><path style="opacity:0.989" fill="#000000" d="M 255.5,169.5 C 309.85,171.735 349.017,197.068 373,245.5C 392.45,295.121 385.783,340.788 353,382.5C 312.442,424.681 264.275,436.514 208.5,418C 156.273,394.916 129.273,354.75 127.5,297.5C 170.167,297.5 212.833,297.5 255.5,297.5C 255.5,254.833 255.5,212.167 255.5,169.5 Z"/></g>
</svg>
