<?xml version="1.0" standalone="no"?>
<!DOCTYPE svg PUBLIC "-//W3C//DTD SVG 20010904//EN"
 "http://www.w3.org/TR/2001/REC-SVG-20010904/DTD/svg10.dtd">
<svg version="1.0" xmlns="http://www.w3.org/2000/svg"
 width="512.000000pt" height="512.000000pt" viewBox="0 0 512.000000 512.000000"
 preserveAspectRatio="xMidYMid meet">

<g transform="translate(0.000000,512.000000) scale(0.100000,-0.100000)"
fill="#000000" stroke="none">
<path d="M2380 4954 c-241 -27 -382 -56 -555 -111 -507 -163 -948 -491 -1244
-927 -208 -307 -338 -639 -397 -1018 -25 -158 -25 -518 0 -676 74 -473 259
-879 561 -1230 383 -445 916 -731 1515 -814 123 -17 478 -16 600 1 604 83
1134 368 1516 815 301 350 486 757 560 1228 25 157 25 518 1 675 -83 527 -317
993 -682 1358 -368 368 -824 597 -1352 680 -93 15 -448 28 -523 19z m388 -395
c648 -70 1223 -447 1540 -1007 445 -789 312 -1772 -328 -2412 -849 -849 -2244
-770 -2994 170 -481 603 -571 1445 -229 2137 238 482 654 846 1163 1017 278
93 570 126 848 95z"/>
<path d="M2336 4224 c-349 -47 -682 -208 -938 -452 -668 -639 -691 -1703 -51
-2373 714 -747 1935 -674 2555 153 352 469 435 1097 216 1632 -294 718 -1022
1144 -1782 1040z m312 -411 c14 -10 35 -32 46 -47 21 -27 21 -40 24 -579 l3
-552 296 -220 c162 -121 304 -230 314 -243 45 -58 36 -145 -21 -202 -42 -42
-87 -57 -143 -46 -49 9 -724 519 -748 566 -18 33 -19 70 -19 627 0 395 4 601
11 620 14 37 47 72 84 89 40 19 119 12 153 -13z"/>
</g>
</svg>
