<?xml version="1.0" encoding="UTF-8"?>
<!DOCTYPE svg PUBLIC "-//W3C//DTD SVG 1.1//EN" "http://www.w3.org/Graphics/SVG/1.1/DTD/svg11.dtd">
<svg xmlns="http://www.w3.org/2000/svg" version="1.1" width="512px" height="512px" style="shape-rendering:geometricPrecision; text-rendering:geometricPrecision; image-rendering:optimizeQuality; fill-rule:evenodd; clip-rule:evenodd" xmlns:xlink="http://www.w3.org/1999/xlink">
<g><path style="opacity:0.988" fill="#000000" d="M 250.5,25.5 C 257.943,24.5934 264.61,26.4267 270.5,31C 311.694,71.861 352.528,113.028 393,154.5C 398.684,168.648 394.851,179.148 381.5,186C 361.88,187.438 342.213,187.938 322.5,187.5C 322.987,241.892 322.487,296.226 321,350.5C 317.74,359.427 311.573,365.261 302.5,368C 286.871,369.118 271.204,369.618 255.5,369.5C 239.796,369.618 224.129,369.118 208.5,368C 199.427,365.261 193.26,359.427 190,350.5C 188.513,296.226 188.013,241.892 188.5,187.5C 168.787,187.938 149.12,187.438 129.5,186C 116.149,179.148 112.316,168.648 118,154.5C 158.472,113.028 199.306,71.861 240.5,31C 243.767,28.8703 247.1,27.037 250.5,25.5 Z"/></g>
<g><path style="opacity:0.982" fill="#000000" d="M 511.5,262.5 C 511.5,305.167 511.5,347.833 511.5,390.5C 504,432.846 480.333,462.346 440.5,479C 432.054,481.945 423.387,483.945 414.5,485C 308.5,485.667 202.5,485.667 96.5,485C 50.8253,477.925 19.992,452.758 4,409.5C 2.30755,403.071 0.807552,396.737 -0.5,390.5C -0.5,347.833 -0.5,305.167 -0.5,262.5C 7.37864,245.487 20.0453,240.32 37.5,247C 42.3816,250.214 46.2149,254.381 49,259.5C 50.0352,302.142 51.0352,344.808 52,387.5C 58.836,412.671 75.0026,427.838 100.5,433C 203.833,433.667 307.167,433.667 410.5,433C 435.997,427.838 452.164,412.671 459,387.5C 459.971,344.81 460.971,302.144 462,259.5C 471.426,243.972 484.259,240.138 500.5,248C 505.596,251.906 509.262,256.739 511.5,262.5 Z"/></g>
</svg>
